<?xml version="1.0" encoding="UTF-8"?>
<svg width="36px" height="16px" viewBox="0 0 36 16" version="1.1" xmlns="http://www.w3.org/2000/svg" xmlns:xlink="http://www.w3.org/1999/xlink">
    <!-- Generator: Sketch 43.2 (39069) - http://www.bohemiancoding.com/sketch -->
    <title>Group</title>
    <desc>Created with Sketch.</desc>
    <defs></defs>
    <g id="Page-1" stroke="none" stroke-width="1" fill="none" fill-rule="evenodd">
        <g id="Group" transform="translate(-4.000000, -4.000000)">
            <g id="ic_arrow_back_black_24px">
                <polygon id="Shape" points="0 0 24 0 24 24 0 24"></polygon>
                <polygon id="Shape" fill="#000000" fill-rule="nonzero" points="20 11 7.83 11 13.42 5.41 12 4 4 12 12 20 13.41 18.59 7.83 13 20 13"></polygon>
            </g>
            <g id="ic_arrow_back_black_24px" transform="translate(32.000000, 12.000000) rotate(180.000000) translate(-32.000000, -12.000000) translate(20.000000, 0.000000)">
                <polygon id="Shape" points="0 0 24 0 24 24 0 24"></polygon>
                <polygon id="Shape" fill="#000000" fill-rule="nonzero" points="20 11 7.83 11 13.42 5.41 12 4 4 12 12 20 13.41 18.59 7.83 13 20 13"></polygon>
            </g>
        </g>
    </g>
</svg>