<?xml version="1.0" encoding="UTF-8"?>
<svg width="163px" height="26px" viewBox="0 0 163 26" version="1.1" xmlns="http://www.w3.org/2000/svg" xmlns:xlink="http://www.w3.org/1999/xlink">
    <!-- Generator: Sketch 46.2 (44496) - http://www.bohemiancoding.com/sketch -->
    <title>Group 2</title>
    <desc>Created with Sketch.</desc>
    <defs></defs>
    <g id="Page-1" stroke="none" stroke-width="1" fill="none" fill-rule="evenodd">
        <g id="Group-2" fill="#DFDFDF">
            <path d="M26,24.5644476 C26,25.3569405 25.3576312,26 24.5651167,26 L17.9395821,26 L17.9395821,15.9313031 L21.3192776,15.9313031 L21.8256653,12.0077904 L17.9395821,12.0077904 L17.9395821,9.50212465 C17.9395821,8.36614731 18.2554548,7.59206799 19.8843943,7.59206799 L21.9623546,7.59135977 L21.9623546,4.08144476 C21.6025714,4.03399433 20.369535,3.92705382 18.9346517,3.92705382 C15.9388194,3.92705382 13.8877721,5.75566572 13.8877721,9.11402266 L13.8877721,12.0077904 L10.4995778,12.0077904 L10.4995778,15.9313031 L13.8877721,15.9313031 L13.8877721,26 L1.43488328,26 C0.642368772,26 0,25.3569405 0,24.5644476 L0,1.43555241 C0,0.642351275 0.642368772,0 1.43488328,0 L24.5651167,0 C25.3576312,0 26,0.642351275 26,1.43555241 L26,24.5644476" id="Facebook" fill-rule="nonzero"></path>
            <path d="M60.2553067,2.40671558 C59.184044,3.04251706 58.0003204,3.50491814 56.7351347,3.75233091 C55.7273116,2.67386498 54.2869463,2 52.6923077,2 C49.6356767,2 47.1550477,4.48681555 47.1550477,7.55374708 C47.1550477,7.98936272 47.2026273,8.41158566 47.2977866,8.81830124 C42.6940966,8.58639582 38.6130617,6.37800775 35.8793955,3.01361699 C35.4021574,3.83691647 35.1296558,4.79202845 35.1296558,5.80916984 C35.1296558,7.73490116 36.107201,9.43507097 37.594425,10.431066 C36.6875284,10.4042805 35.8318159,10.1519336 35.083518,9.73887411 L35.083518,9.80654257 C35.083518,12.4984781 36.9931915,14.7442248 39.5293301,15.252443 C39.0650682,15.3828458 38.5748538,15.4483996 38.0695004,15.4483996 C37.7126532,15.4483996 37.3644568,15.4145654 37.0270739,15.3497164 C37.7321176,17.555285 39.7766,19.1617058 42.2009986,19.2047035 C40.3057432,20.6948191 37.915948,21.5829675 35.3214162,21.5829675 C34.874456,21.5829675 34.4325421,21.5575919 34,21.5068405 C36.451072,23.080132 39.3642432,24 42.4915227,24 C52.6814941,24 58.2519157,15.5386242 58.2519157,8.19871199 C58.2519157,7.95693826 58.2475903,7.71586941 58.2382186,7.47902983 C59.3202948,6.69590849 60.260353,5.71824036 61,4.60453045 C60.0080367,5.04578514 58.9396577,5.34465413 57.8193736,5.47858127 C58.9634475,4.79202845 59.841508,3.70369421 60.2553067,2.40671558" id="Twitter" fill-rule="nonzero"></path>
            <path d="M89.2033634,2.00475004 C85.5893408,1.88951441 83.1435802,3.87100516 81.8589885,7.9471143 C82.5179535,7.67729429 83.1598948,7.54800554 83.7826841,7.54800554 C85.1034516,7.54800554 85.6858093,8.26752557 85.5297573,9.7157002 C85.4503126,10.5940206 84.8707922,11.8679364 83.7826841,13.5458797 C82.6938667,15.2203096 81.877431,16.0564706 81.3347956,16.0564706 C80.6346895,16.0564706 79.9955856,14.7642857 79.4118093,12.1742946 C79.2174536,11.4126151 78.8656272,9.46977049 78.3662608,6.34435531 C77.8966861,3.45011404 76.652526,2.09609536 74.6344898,2.28792052 C73.7783318,2.36732069 72.495868,3.1275948 70.7892265,4.57576942 C69.5436477,5.6789398 68.2810451,6.78492081 67,7.88668586 L68.2228803,9.43252971 C69.390433,8.63009622 70.0678406,8.23028479 70.2621963,8.23028479 C71.15453,8.23028479 71.9894083,9.60186988 72.768959,12.3464454 C73.4690651,14.855631 74.1663338,17.3725458 74.8685678,19.8894607 C75.9155349,22.6326309 77.1979987,24 78.7117032,24 C81.1588824,24 84.1536623,21.7529052 87.6882403,17.2559049 C91.1036513,12.9549457 92.8741322,9.56603441 92.9869153,7.08636036 C93.1443859,3.7754439 91.8803647,2.07782629 89.2033634,2.00475004" id="Vimeo" fill-rule="nonzero"></path>
            <path d="M127.044079,7.63206225 C125.891842,5.69569862 124.328238,4.16261781 122.354297,3.03231478 C120.379327,1.90175922 118.224416,1.33660771 115.886475,1.33660771 C113.548535,1.33660771 111.392594,1.90175922 109.417624,3.03231478 C107.443683,4.16261781 105.880851,5.69569862 104.728614,7.63206225 C103.576119,9.56918347 103,11.6840825 103,13.9775168 C103,16.7318097 103.819644,19.2085774 105.457644,21.4083249 C107.096673,23.6080724 109.213485,25.1310522 111.808851,25.9754966 C112.110554,26.0307996 112.334772,25.9924158 112.479446,25.8611027 C112.625406,25.729032 112.697743,25.564133 112.697743,25.3669107 C112.697743,25.334335 112.694653,25.0383754 112.689762,24.4780219 C112.683584,23.9189309 112.680495,23.4305471 112.680495,23.0133754 L112.295386,23.0792845 C112.04903,23.1237289 111.738317,23.1424158 111.364277,23.1366077 C110.989208,23.1315572 110.59998,23.0931734 110.197881,23.0212037 C109.794752,22.9502441 109.420455,22.7863552 109.073703,22.5280219 C108.726693,22.2704461 108.481366,21.9330724 108.335663,21.5159006 L108.167564,21.1371128 C108.056099,20.8845875 107.88002,20.6055471 107.639584,20.2977188 C107.398376,19.9909006 107.155109,19.7818097 106.909782,19.6722138 L106.791881,19.5903956 C106.713624,19.5350926 106.641287,19.4691835 106.573842,19.3921633 C106.506396,19.3161532 106.456198,19.239133 106.42299,19.1623653 C106.389782,19.0853451 106.416812,19.0222138 106.506396,18.9729713 C106.59598,18.9224663 106.758931,18.8989814 106.993188,18.8989814 L107.328871,18.9482239 C107.552317,18.9916582 107.829822,19.1237289 108.159584,19.3429208 C108.489347,19.5628703 108.760931,19.8479713 108.97305,20.1989814 C109.230475,20.6487289 109.540158,20.9911532 109.904158,21.2277693 C110.268158,21.4636279 110.634218,21.5810522 111.003366,21.5810522 C111.372257,21.5810522 111.691208,21.5532744 111.959703,21.499234 C112.228198,21.4439309 112.479446,21.3621128 112.714733,21.2525168 C112.815386,20.5166582 113.089802,19.9515067 113.536436,19.5568097 C112.898792,19.4906481 112.325762,19.3921633 111.816832,19.25984 C111.307901,19.1287794 110.78198,18.914638 110.240099,18.6176683 C109.697188,18.3219612 109.246693,17.954032 108.888614,17.5159006 C108.531564,17.0770117 108.237069,16.4999915 108.008733,15.7876178 C107.779366,15.0734764 107.664812,14.2507491 107.664812,13.3186784 C107.664812,11.9909006 108.106297,10.8605976 108.990297,9.92726427 C108.575842,8.92903195 108.61497,7.81059761 109.107941,6.57044609 C109.431525,6.47095114 109.913168,6.54595114 110.550812,6.79241579 C111.188455,7.03913296 111.654911,7.25125417 111.951465,7.42574912 C112.248277,7.60125417 112.485624,7.75024407 112.664535,7.87069862 C113.705307,7.58559761 114.779287,7.44266832 115.886475,7.44266832 C116.993406,7.44266832 118.067386,7.58559761 119.108158,7.87069862 L119.745802,7.47499155 C120.181109,7.21160771 120.69596,6.97095114 121.289327,6.75100165 C121.881663,6.53206225 122.33499,6.47196124 122.648792,6.57044609 C123.151545,7.81059761 123.196851,8.92903195 122.782653,9.92827438 C123.666396,10.8605976 124.107881,11.9909006 124.107881,13.3186784 C124.107881,14.2507491 123.993327,15.0765067 123.76396,15.7956986 C123.534851,16.514638 123.239069,17.0909006 122.875069,17.5237289 C122.511069,17.9578198 122.058515,18.3219612 121.515604,18.6186784 C120.973465,18.914638 120.447545,19.1287794 119.938871,19.25984 C119.429941,19.3921633 118.856911,19.4906481 118.219267,19.5568097 C118.800535,20.0510016 119.091168,20.8292845 119.091168,21.8936784 L119.091168,25.3669107 C119.091168,25.564133 119.161446,25.729032 119.301228,25.8600926 C119.44101,25.9914057 119.661366,26.0307996 119.963842,25.9754966 C122.559208,25.1300421 124.67602,23.6080724 126.31402,21.4073148 C127.953307,19.2075673 128.772693,16.7307996 128.772693,13.9767592 C128.771663,11.6840825 128.195545,9.56918347 127.044079,7.63206225 Z" id="github-logo"></path>
            <g id="Group" transform="translate(137.000000, 0.000000)">
                <path d="M24.3836056,1.41899413 C23.4374377,0.473083933 22.2977061,0 20.9656996,0 L4.8378022,0 C3.50579571,0 2.36606416,0.473083933 1.41963849,1.41899413 C0.473212831,2.36516199 0,3.5045831 0,4.83622676 L0,20.9597311 C0,22.2913748 0.473212831,23.4307959 1.41963849,24.3769638 C2.36606416,25.3231316 3.50579571,25.7962156 4.8378022,25.7962156 L20.9656996,25.7962156 C22.2977061,25.7962156 23.4374377,25.3231316 24.3836056,24.3769638 C25.3300313,23.4307959 25.8032441,22.2913748 25.8032441,20.9597311 L25.8032441,4.83622676 C25.8032441,3.5045831 25.3300313,2.36516199 24.3836056,1.41899413 Z M10.4195693,15.1365604 C9.72062968,15.855274 8.87567777,16.2147641 7.88393557,16.2147641 C6.89219336,16.2147641 6.04724145,15.855274 5.34804245,15.1365604 C4.65014018,14.4186469 4.30054068,13.5489902 4.30054068,12.5299904 C4.30054068,11.5091239 4.65014018,10.6402672 5.34804245,9.92262041 C6.04724145,9.20390688 6.89219336,8.84441677 7.88393557,8.84441677 C8.87567777,8.84441677 9.72062968,9.20390688 10.4195693,9.92262041 C11.118509,10.6402672 11.4681085,11.5091239 11.4681085,12.5299904 C11.4681085,13.5489902 11.118509,14.4186469 10.4195693,15.1365604 Z M19.7374075,15.1365604 C19.0395052,15.855274 18.1945533,16.2147641 17.2028111,16.2147641 C16.2108096,16.2147641 15.3650796,15.855274 14.666918,15.1365604 C13.9679783,14.4186469 13.6183788,13.5489902 13.6183788,12.5299904 C13.6183788,11.5091239 13.9679783,10.6402672 14.666918,9.92262041 C15.3650796,9.20390688 16.2108096,8.84441677 17.2028111,8.84441677 C18.1945533,8.84441677 19.0395052,9.20390688 19.7374075,9.92262041 C20.4363471,10.6402672 20.7859466,11.5091239 20.7859466,12.5299904 C20.7859466,13.5489902 20.4363471,14.4186469 19.7374075,15.1365604 Z" id="flickr-website-logo-silhouette"></path>
            </g>
        </g>
    </g>
</svg>